<svg xmlns="http://www.w3.org/2000/svg" viewBox="0 0 298.95 126.49"><title>bspk-black</title><g id="Layer_2" data-name="Layer 2"><g id="Layer_1-2" data-name="Layer 1"><path id="Fill-26" d="M76.7,82.92c6.39,0,10.26-2.51,10.26-7.3v-.15C87,71,83.39,68.33,76,68.33H61.2V82.92ZM74,60.42c6,0,10-2.36,10-7.22V53c0-4.18-3.35-6.76-9.35-6.76H61.2V60.42ZM52,38H75.86c6.08,0,10.87,1.67,13.91,4.71a11.91,11.91,0,0,1,3.57,8.82v.15c0,6.38-3.65,9.8-7.6,11.86,6.23,2.13,10.56,5.7,10.56,12.92v.15c0,9.5-7.83,14.59-19.68,14.59H52V38Z"/><path id="Fill-27" d="M102,83.21l5.62-6.69c5.09,4.41,10.18,6.92,16.8,6.92,5.78,0,9.42-2.66,9.42-6.69V76.6c0-3.8-2.13-5.85-12-8.13-11.32-2.74-17.71-6.08-17.71-15.89v-.15c0-9.12,7.6-15.43,18.17-15.43a29.49,29.49,0,0,1,19.31,6.69l-5,7.07c-4.79-3.57-9.58-5.47-14.44-5.47-5.47,0-8.67,2.81-8.67,6.31v.15c0,4.1,2.43,5.93,12.62,8.36,11.25,2.74,17.1,6.76,17.1,15.58v.15c0,10-7.83,15.89-19,15.89A32.77,32.77,0,0,1,102,83.21"/><path id="Fill-28" d="M176.22,65.67c7.07,0,11.48-4,11.48-9.5V56c0-6.23-4.48-9.5-11.48-9.5H165.35V65.67ZM156,38h21c12.39,0,20.22,7.07,20.22,17.78v.15c0,11.93-9.58,18.16-21.28,18.16H165.35V91.2H156V38Z"/><polyline id="Fill-29" points="207 38 216.35 38 216.35 64.75 241.66 38 253.13 38 231.02 60.88 254.12 91.2 242.8 91.2 224.63 67.26 216.35 75.77 216.35 91.2 207 91.2 207 38"/><path d="M0,0V126.49H298.95V0ZM291,118.53H8V8H291Z"/></g></g></svg>